HIERARCHY
ROOT hip
{
	OFFSET 0.000000 0.000000 0.000000 
	CHANNELS 6 Xposition Yposition Zposition Zrotation Xrotation Yrotation
	JOINT abdomen
	{
		OFFSET 0.000000 3.402643 0.000000 
		CHANNELS 3 Zrotation Xrotation Yrotation
		JOINT chest
		{
			OFFSET 0.000000 8.438565 -0.680529 
			CHANNELS 3 Zrotation Xrotation Yrotation
			JOINT neck
			{
				OFFSET 0.000000 10.207942 -0.272212 
				CHANNELS 3 Zrotation Xrotation Yrotation
				JOINT head
				{
					OFFSET 0.000000 3.130431 0.000000 
					CHANNELS 3 Zrotation Xrotation Yrotation
					End Site
					{
						OFFSET 0.000000 3.130435 0.000000 
					}
				}
			}
			JOINT lCollar
			{
				OFFSET 3.470700 6.669187 -0.816635 
				CHANNELS 3 Zrotation Xrotation Yrotation
				JOINT lShldr
				{
					OFFSET 3.198488 0.000000 0.000000 
					CHANNELS 3 Zrotation Xrotation Yrotation
					JOINT lForeArm
					{
						OFFSET 10.139888 0.000000 0.000000 
						CHANNELS 3 Zrotation Xrotation Yrotation
						JOINT lHand
						{
							OFFSET 8.370511 0.000000 0.000000 
							CHANNELS 3 Zrotation Xrotation Yrotation
							End Site
							{
								OFFSET 4.083176 0.000000 0.000000 
							}
						}
					}
				}
			}
			JOINT rCollar
			{
				OFFSET -3.470700 6.669187 -0.816635 
				CHANNELS 3 Zrotation Xrotation Yrotation
				JOINT rShldr
				{
					OFFSET -3.198488 0.000000 0.000000 
					CHANNELS 3 Zrotation Xrotation Yrotation
					JOINT rForeArm
					{
						OFFSET -10.139888 0.000000 0.000000 
						CHANNELS 3 Zrotation Xrotation Yrotation
						JOINT rHand
						{
							OFFSET -8.370511 0.000000 0.000000 
							CHANNELS 3 Zrotation Xrotation Yrotation
							End Site
							{
								OFFSET -4.083176 0.000000 0.000000 
							}
						}
					}
				}
			}
		}
	}
	JOINT lThigh
	{
		OFFSET 5.308129 -1.633274 1.361059 
		CHANNELS 3 Zrotation Xrotation Yrotation
		JOINT lShin
		{
			OFFSET -2.041588 -20.007561 0.000000 
			CHANNELS 3 Zrotation Xrotation Yrotation
			JOINT lFoot
			{
				OFFSET 0.000000 -19.190928 -1.224953 
				CHANNELS 3 Zrotation Xrotation Yrotation
				End Site
				{
					OFFSET 0.000000 -2.449906 4.627600 
				}
			}
		}
	}
	JOINT rThigh
	{
		OFFSET -5.308129 -1.633274 1.361059 
		CHANNELS 3 Zrotation Xrotation Yrotation
		JOINT rShin
		{
			OFFSET 2.041588 -20.007561 0.000000 
			CHANNELS 3 Zrotation Xrotation Yrotation
			JOINT rFoot
			{
				OFFSET 0.000000 -19.190928 -1.224953 
				CHANNELS 3 Zrotation Xrotation Yrotation
				End Site
				{
					OFFSET 0.000000 -2.449906 4.627600 
				}
			}
		}
	}
}
MOTION
Frames: 6
Frame Time: 0.016667
0.570191 46.210384 -5.818950 3.916020 2.187500 -23.234798 8.906260 16.700701 -5.329290 1.677920 -19.430901 -4.959960 10.998800 18.340099 -9.717010 9.063540 14.569200 -5.338480 -1.998780 -0.069785 1.998780 -81.551598 15.215800 -24.009199 -1.554350 0.055630 -127.994003 -0.061729 46.971001 0.023235 1.998780 -0.069785 -1.998780 77.580399 -4.183410 4.969270 -1.199700 -3.690990 141.451996 0.083903 23.285000 -0.050986 -6.870840 -7.844890 9.703130 3.003240 35.913200 0.916580 5.446590 -18.572100 12.920700 -7.734720 -35.476799 -11.694600 -2.070170 58.350101 -2.217230 -2.333460 -17.790600 -10.148200 
0.798843 46.683083 -5.934870 4.111330 1.816410 -24.982800 8.664120 16.928301 -5.175170 1.675580 -19.358000 -4.771380 10.589500 18.326700 -9.392430 8.944080 14.521300 -5.212150 -1.998780 -0.069785 1.998780 -81.119102 14.422400 -23.471901 -1.548950 0.064320 -128.287003 -0.062373 46.716999 0.024161 1.998780 -0.069785 -1.998780 77.585197 -3.781940 5.279540 -1.198540 -3.691720 141.490997 0.084163 23.051001 -0.051567 -6.835590 -8.879650 10.423100 2.941750 37.520699 0.998889 4.086330 -14.739700 10.905600 -6.959180 -33.301102 -11.449600 -1.922140 59.991199 -2.377040 -2.412450 -16.583799 -11.084300 
1.009960 47.155785 -6.056610 4.287110 1.435540 -26.623400 8.320920 17.190001 -5.006860 1.594260 -19.254900 -4.612910 10.287100 18.323900 -9.076330 8.864380 14.483000 -5.069330 -1.998780 -0.069785 1.998780 -80.613998 13.490900 -22.990499 -1.544580 0.071222 -128.520996 -0.063226 46.375000 0.025395 1.998780 -0.069785 -1.998780 77.747200 -3.535400 5.580660 -1.196530 -3.692990 141.559998 0.083970 23.226999 -0.051131 -6.472350 -10.244600 11.342800 2.882010 39.805099 1.101590 2.628240 -10.682200 8.153040 -6.242710 -31.021799 -11.176900 -1.817170 61.395599 -2.502510 -2.471100 -14.800000 -12.250500 
1.201550 47.459385 -6.208040 4.072260 1.289060 -27.804998 7.641020 17.495399 -4.700430 1.571590 -18.987000 -4.398200 10.103500 18.358400 -8.871660 8.776280 14.610700 -4.936180 -1.998780 -0.069785 1.998780 -80.055099 12.399500 -23.228500 -1.542380 0.074676 -128.636993 -0.063322 46.335999 0.025533 1.998780 -0.069785 -1.998780 78.314903 -3.219770 6.135730 -1.200550 -3.690450 141.423004 0.083663 23.500000 -0.050451 -4.870340 -12.729200 12.514600 2.789810 43.445202 1.256480 1.462250 -6.169830 3.589330 -5.222370 -28.292000 -10.556700 -1.869420 61.844501 -2.456850 -2.108960 -13.031800 -11.935800 
1.396560 47.693283 -6.353830 3.876950 1.250000 -29.006199 7.210760 17.709499 -4.500370 1.662850 -18.814800 -4.249010 9.806180 18.302999 -8.501750 8.717300 14.669800 -4.767360 -1.998780 -0.069785 1.998780 -79.905998 11.234600 -23.316999 -1.538350 0.081008 -128.852005 -0.063537 46.248001 0.025848 1.998780 -0.069785 -1.998780 78.496902 -2.778890 6.630830 -1.204600 -3.687880 141.285995 0.083718 23.451000 -0.050572 -3.290850 -15.121800 13.376800 2.664470 46.417702 1.435640 0.883487 -3.184110 0.525620 -4.283470 -25.629101 -9.982590 -1.919290 61.891300 -2.394260 -1.743990 -11.279100 -11.378200 
1.600120 47.752785 -6.485540 3.789060 1.455070 -30.236698 7.353060 17.684000 -4.560900 2.039310 -18.902500 -4.261600 9.248720 18.061501 -7.706340 8.736160 14.562200 -4.465690 -1.998780 -0.069785 1.998780 -80.757896 9.890930 -23.063700 -1.530560 0.093030 -129.261993 -0.064063 46.033001 0.026612 1.998780 -0.069785 -1.998780 77.711998 -2.049120 6.957480 -1.208340 -3.685490 141.158997 0.084640 22.611000 -0.052651 -1.892410 -17.471100 13.323300 2.604610 48.284801 1.511940 1.015500 -4.394650 1.016650 -3.465540 -23.150801 -9.380140 -2.063340 61.151402 -2.236160 -1.336180 -9.730880 -10.210800 
